solid OpenSCAD_Model
  facet normal 1 -0 0
    outer loop
      vertex 18 3 4
      vertex 18 72.5 0
      vertex 18 72.5 4
    endloop
  endfacet
  facet normal 1 0 0
    outer loop
      vertex 18 72.5 0
      vertex 18 3 4
      vertex 18 3 0
    endloop
  endfacet
  facet normal -0 0 1
    outer loop
      vertex 6 72.5 4
      vertex 18 3 4
      vertex 18 72.5 4
    endloop
  endfacet
  facet normal 0 0 1
    outer loop
      vertex 18 3 4
      vertex 6 72.5 4
      vertex 6 3 4
    endloop
  endfacet
  facet normal 0 0 -1
    outer loop
      vertex 24 0 0
      vertex 18 3 0
      vertex 24 3 0
    endloop
  endfacet
  facet normal 0 0 -1
    outer loop
      vertex 18 3 0
      vertex 6 3 0
      vertex 18 72.5 0
    endloop
  endfacet
  facet normal 0 0 -1
    outer loop
      vertex 24 0 0
      vertex 6 3 0
      vertex 18 3 0
    endloop
  endfacet
  facet normal 0 0 -1
    outer loop
      vertex 0 0 0
      vertex 6 3 0
      vertex 24 0 0
    endloop
  endfacet
  facet normal -0 0 -1
    outer loop
      vertex 6 3 0
      vertex 0 0 0
      vertex 0 3 0
    endloop
  endfacet
  facet normal -0 0 -1
    outer loop
      vertex 18 72.5 0
      vertex 6 3 0
      vertex 6 72.5 0
    endloop
  endfacet
  facet normal -1 0 0
    outer loop
      vertex 6 3 0
      vertex 6 72.5 4
      vertex 6 72.5 0
    endloop
  endfacet
  facet normal -1 -0 0
    outer loop
      vertex 6 72.5 4
      vertex 6 3 0
      vertex 6 3 4
    endloop
  endfacet
  facet normal 0 1 -0
    outer loop
      vertex 18 72.5 0
      vertex 6 72.5 4
      vertex 18 72.5 4
    endloop
  endfacet
  facet normal 0 1 0
    outer loop
      vertex 6 72.5 4
      vertex 18 72.5 0
      vertex 6 72.5 0
    endloop
  endfacet
  facet normal 0 1 0
    outer loop
      vertex 24 3 7
      vertex 18 3 4
      vertex 0 3 7
    endloop
  endfacet
  facet normal 0 1 -0
    outer loop
      vertex 24 3 0
      vertex 18 3 4
      vertex 24 3 7
    endloop
  endfacet
  facet normal 0 1 0
    outer loop
      vertex 18 3 4
      vertex 24 3 0
      vertex 18 3 0
    endloop
  endfacet
  facet normal 0 1 -0
    outer loop
      vertex 6 3 4
      vertex 0 3 7
      vertex 18 3 4
    endloop
  endfacet
  facet normal 0 1 0
    outer loop
      vertex 0 3 0
      vertex 6 3 4
      vertex 6 3 0
    endloop
  endfacet
  facet normal 0 1 0
    outer loop
      vertex 6 3 4
      vertex 0 3 0
      vertex 0 3 7
    endloop
  endfacet
  facet normal 1 -0 0
    outer loop
      vertex 24 0 7
      vertex 24 3 0
      vertex 24 3 7
    endloop
  endfacet
  facet normal 1 0 0
    outer loop
      vertex 24 3 0
      vertex 24 0 7
      vertex 24 0 0
    endloop
  endfacet
  facet normal -0 0 1
    outer loop
      vertex 0 3 7
      vertex 24 0 7
      vertex 24 3 7
    endloop
  endfacet
  facet normal 0 0 1
    outer loop
      vertex 24 0 7
      vertex 0 3 7
      vertex 0 0 7
    endloop
  endfacet
  facet normal -1 0 0
    outer loop
      vertex 0 0 0
      vertex 0 3 7
      vertex 0 3 0
    endloop
  endfacet
  facet normal -1 -0 0
    outer loop
      vertex 0 3 7
      vertex 0 0 0
      vertex 0 0 7
    endloop
  endfacet
  facet normal 0 -1 0
    outer loop
      vertex 0 0 0
      vertex 24 0 7
      vertex 0 0 7
    endloop
  endfacet
  facet normal 0 -1 -0
    outer loop
      vertex 24 0 7
      vertex 0 0 0
      vertex 24 0 0
    endloop
  endfacet
endsolid OpenSCAD_Model
